<?xml version="1.0" standalone="no"?>
<!DOCTYPE svg PUBLIC "-//W3C//DTD SVG 20010904//EN"
 "http://www.w3.org/TR/2001/REC-SVG-20010904/DTD/svg10.dtd">
<svg version="1.0" xmlns="http://www.w3.org/2000/svg"
 width="16.000000pt" height="16.000000pt" viewBox="0 0 16.000000 16.000000"
 preserveAspectRatio="xMidYMid meet">
<metadata>
Created by potrace 1.11, written by Peter Selinger 2001-2013
</metadata>
<g transform="translate(0.000000,16.000000) scale(0.001563,-0.001563)"
fill="#000000" stroke="none">
<path d="M0 5440 l0 -4800 5120 0 5120 0 0 4800 0 4800 -5120 0 -5120 0 0
-4800z m7235 5 c-349 -1980 -635 -3603 -635 -3607 0 -5 -331 -8 -735 -8 -404
0 -735 2 -735 5 0 12 41 241 46 258 5 15 -9 10 -68 -23 -263 -149 -583 -269
-862 -321 -160 -30 -451 -37 -606 -15 -273 40 -468 115 -696 268 -133 88 -317
264 -419 399 -223 297 -375 702 -416 1114 -15 147 -7 457 16 605 72 481 281
936 631 1375 113 141 386 415 532 533 425 344 915 589 1393 696 419 93 895 82
1205 -29 l93 -33 6 27 c3 14 81 457 174 984 93 527 172 961 175 964 5 6 1529
412 1533 409 1 -1 -283 -1622 -632 -3601z"/>
<path d="M4941 6180 c-322 -68 -630 -351 -869 -800 -323 -605 -438 -1412 -295
-2060 131 -594 456 -924 855 -870 200 27 458 151 615 297 l53 48 211 1195
c234 1326 240 1367 205 1554 -57 302 -228 523 -474 613 -75 28 -224 39 -301
23z"/>
</g>
</svg>
